<svg width="36" height="36" viewBox="0 0 36 36" fill="none" xmlns="http://www.w3.org/2000/svg">
<path d="M14.355 28.2299C14.64 28.2299 14.925 28.1249 15.15 27.8999C15.585 27.4649 15.585 26.7449 15.15 26.3099L6.84001 17.9999L15.15 9.68993C15.585 9.25493 15.585 8.53493 15.15 8.09993C14.715 7.66493 13.995 7.66493 13.56 8.09993L4.45501 17.2049C4.02001 17.6399 4.02001 18.3599 4.45501 18.7949L13.56 27.8999C13.785 28.1249 14.07 28.2299 14.355 28.2299Z" fill="#292D32"/>
<path d="M5.505 19.125H30.75C31.365 19.125 31.875 18.615 31.875 18C31.875 17.385 31.365 16.875 30.75 16.875H5.505C4.89 16.875 4.38 17.385 4.38 18C4.38 18.615 4.89 19.125 5.505 19.125Z" fill="#292D32"/>
</svg>
