<svg width="36" height="36" viewBox="0 0 36 36" fill="none" xmlns="http://www.w3.org/2000/svg">
<path d="M21.645 28.2299C21.36 28.2299 21.075 28.1249 20.85 27.8999C20.415 27.4649 20.415 26.7449 20.85 26.3099L29.16 17.9999L20.85 9.68993C20.415 9.25493 20.415 8.53493 20.85 8.09993C21.285 7.66493 22.005 7.66493 22.44 8.09993L31.545 17.2049C31.98 17.6399 31.98 18.3599 31.545 18.7949L22.44 27.8999C22.215 28.1249 21.93 28.2299 21.645 28.2299Z" fill="#292D32"/>
<path d="M30.495 19.125H5.25C4.635 19.125 4.125 18.615 4.125 18C4.125 17.385 4.635 16.875 5.25 16.875H30.495C31.11 16.875 31.62 17.385 31.62 18C31.62 18.615 31.11 19.125 30.495 19.125Z" fill="#292D32"/>
</svg>
