<?xml version="1.0" encoding="utf-8"?>
<!-- Generator: Adobe Illustrator 16.0.0, SVG Export Plug-In . SVG Version: 6.00 Build 0)  -->
<!DOCTYPE svg PUBLIC "-//W3C//DTD SVG 1.1//EN" "http://www.w3.org/Graphics/SVG/1.1/DTD/svg11.dtd">
<svg version="1.1" id="Layer_1" xmlns="http://www.w3.org/2000/svg" xmlns:xlink="http://www.w3.org/1999/xlink" x="0px" y="0px"
	 width="884.213px" height="146.309px" viewBox="0 0 884.213 146.309" enable-background="new 0 0 884.213 146.309"
	 xml:space="preserve">
<g>
	<path fill="#262262" d="M241.829,38.975h21.166l18.144,48.922h0.647l18.144-48.922h21.059v74.301h-14.794V61.547h-0.542
		l-19.224,51.729h-10.583l-19.114-51.729h-0.541v51.729H241.83L241.829,38.975L241.829,38.975z"/>
	<path fill="#262262" d="M330.644,84.766c0-18.252,2.16-28.294,23.111-28.294c5.4,0,11.771,0.646,15.875,1.616v10.909
		c-3.132-0.539-8.207-0.971-12.096-0.971c-11.123,0-12.312,2.807-12.312,16.846c0,14.363,1.404,16.847,12.526,16.847
		c3.456,0,8.099-0.322,12.312-0.861v10.801c-4.213,0.97-10.69,1.617-16.091,1.617C332.047,113.275,330.644,103.557,330.644,84.766z"
		/>
	<path fill="#262262" d="M373.885,38.975h15.445l13.174,56.479h0.539l14.365-56.479h15.982l14.579,56.479h0.541l12.42-56.479h15.334
		l-18.251,74.301h-19.222l-13.5-51.297h-0.433l-13.498,51.297h-19.225L373.885,38.975z"/>
	<path fill="#262262" d="M484.495,38.975h15.335v74.301h-15.335V38.975z"/>
	<path fill="#262262" d="M510.017,38.975h15.874l29.053,45.574h0.539V38.975h14.796v74.301H555.59l-30.347-48.06h-0.431v48.06
		h-14.797L510.017,38.975L510.017,38.975z"/>
	<path fill="#262262" d="M615.251,33.033h14.796v12.746h-14.796V33.033z M615.361,58.197h14.47v55.078h-14.47V58.197z"/>
	<path fill="#262262" d="M659.519,52.26h-21.49V38.975h58.533V52.26h-21.6v61.017h-15.443V52.26z"/>
	<path fill="#262262" d="M704.78,38.975h50.974v12.741h-35.639v17.713h30.563v12.74h-30.563v18.359h35.639v12.746H704.78V38.975z"/>
	<path fill="#262262" d="M763.973,75.263c0-30.132,3.779-38.018,30.889-38.018c6.263,0,13.932,0.758,18.358,1.837v11.771
		c-5.832-0.646-11.34-1.078-14.58-1.078c-18.036,0-19.332,2.053-19.332,25.487c0,23.434,1.296,25.485,19.332,25.485
		c4.751,0,10.906-0.431,15.012-1.082v11.991c-4.858,0.97-12.743,1.617-18.79,1.617C767.752,113.275,763.973,105.393,763.973,75.263z
		"/>
	<path fill="#262262" d="M824.06,38.975h15.335v30.347h29.377V38.975h15.441v74.301h-15.441V82.498h-29.377v30.777H824.06V38.975z"
		/>
</g>
<g>
	
		<linearGradient id="SVGID_1_" gradientUnits="userSpaceOnUse" x1="84.7583" y1="164.5447" x2="84.7583" y2="-22.3012" gradientTransform="matrix(1 0 0 -1 0 147.3081)">
		<stop  offset="0" style="stop-color:#2DF7A9"/>
		<stop  offset="0.4751" style="stop-color:#3BABFF"/>
		<stop  offset="0.5409" style="stop-color:#47A4FF"/>
		<stop  offset="0.6605" style="stop-color:#6890FF"/>
		<stop  offset="0.8203" style="stop-color:#9C70FF"/>
		<stop  offset="1" style="stop-color:#DF48FF"/>
	</linearGradient>
	<path fill="url(#SVGID_1_)" d="M122.348,36.916c12.334,0.828,21.64,11.641,21.64,24.001v37.103c0,7.049,5.715,12.764,12.764,12.764
		l0,0c7.049,0,12.764-5.715,12.764-12.764V61.314c0-27.162-22.224-50.319-49.383-49.977c-14.012,0.178-26.58,6.331-35.375,15.981
		c-8.794-9.65-21.363-15.805-35.374-15.981C22.224,10.995,0,34.152,0,61.314v64.29c0,7.05,5.715,12.765,12.764,12.765l0,0
		c7.049,0,12.764-5.715,12.764-12.765V60.917c0-12.36,9.306-23.173,21.64-24.001c13.527-0.906,24.826,9.843,24.826,23.181v44.5
		v21.009c0,7.05,5.715,12.765,12.764,12.765l0,0c7.05,0,12.764-5.715,12.764-12.765v-21.009v-44.5
		C97.522,46.759,108.82,36.01,122.348,36.916z"/>
	
		<linearGradient id="SVGID_2_" gradientUnits="userSpaceOnUse" x1="156.7515" y1="164.5457" x2="156.7514" y2="-22.2998" gradientTransform="matrix(1 0 0 -1 0 147.3081)">
		<stop  offset="0" style="stop-color:#2DF7A9"/>
		<stop  offset="0.4751" style="stop-color:#3BABFF"/>
		<stop  offset="0.5409" style="stop-color:#47A4FF"/>
		<stop  offset="0.6605" style="stop-color:#6890FF"/>
		<stop  offset="0.8203" style="stop-color:#9C70FF"/>
		<stop  offset="1" style="stop-color:#DF48FF"/>
	</linearGradient>
	<path fill="url(#SVGID_2_)" d="M192.748,34.547L192.748,34.547c-7.049,0-12.764,5.716-12.764,12.765v49.416
		c0,12.36-9.306,23.172-21.639,23.999c-13.527,0.907-24.826-9.839-24.826-23.178V59.627c0-7.05-5.715-12.765-12.764-12.765l0,0
		c-7.05,0-12.765,5.715-12.765,12.765V96.35c0,26.403,20.492,48.924,46.877,49.923c27.741,1.05,50.645-21.212,50.645-48.725V47.311
		C205.513,40.262,199.798,34.547,192.748,34.547z"/>
	
		<linearGradient id="SVGID_3_" gradientUnits="userSpaceOnUse" x1="192.0337" y1="164.5466" x2="192.0337" y2="-22.301" gradientTransform="matrix(1 0 0 -1 0 147.3081)">
		<stop  offset="0" style="stop-color:#2DF7A9"/>
		<stop  offset="0.4751" style="stop-color:#3BABFF"/>
		<stop  offset="0.5409" style="stop-color:#47A4FF"/>
		<stop  offset="0.6605" style="stop-color:#6890FF"/>
		<stop  offset="0.8203" style="stop-color:#9C70FF"/>
		<stop  offset="1" style="stop-color:#DF48FF"/>
	</linearGradient>
	<circle fill="url(#SVGID_3_)" cx="192.033" cy="14.666" r="14.666"/>
</g>
</svg>
