<svg width="57" height="51" viewBox="0 0 57 51" fill="none" xmlns="http://www.w3.org/2000/svg">
<g clip-path="url(#clip0_0_228)">
<path fill-rule="evenodd" clip-rule="evenodd" d="M1.65226 26.4667H9.94653C10.3209 26.4679 10.6795 26.6183 10.9442 26.8852C11.2089 27.1521 11.3581 27.5136 11.3593 27.891V44.9835C11.3581 45.3609 11.2089 45.7225 10.9442 45.9893C10.6795 46.2562 10.3209 46.4066 9.94653 46.4079H1.65226C1.27794 46.4066 0.919301 46.2562 0.654617 45.9893C0.389933 45.7225 0.240704 45.3609 0.239502 44.9835L0.239502 27.891C0.240704 27.5136 0.389933 27.1521 0.654617 26.8852C0.919301 26.6183 1.27794 26.4679 1.65226 26.4667ZM13.1913 44.7354V28.0886H22.0097C25.1633 28.6584 28.317 30.386 31.4661 32.3847H37.2447C39.856 32.5409 41.2278 35.2151 38.6894 36.9794C36.6614 38.4773 33.9908 38.39 31.2519 38.1465C29.3606 38.05 29.2786 40.6093 31.2519 40.6185C31.9355 40.6736 32.6783 40.5128 33.33 40.5082C36.748 40.5082 39.5644 39.8466 41.287 37.1265L42.1666 35.0542L50.7571 30.7582C55.0592 29.3338 58.1126 33.8688 54.9452 37.0208C48.9518 41.4322 42.5404 45.2352 35.8046 48.3744C31.065 51.2829 26.3209 51.1818 21.5813 48.3744L13.1959 44.7354H13.1913ZM28.4947 4.03513C28.4422 3.99166 28.3819 3.95889 28.317 3.93864C28.269 3.92761 28.2191 3.92761 28.1711 3.93864C28.0422 3.95171 27.9231 4.01421 27.8385 4.11324L26.6855 5.49166C26.5827 5.61629 26.4404 5.70129 26.2826 5.73227C26.1248 5.76325 25.9612 5.73831 25.8196 5.66167C25.6646 5.57896 25.5006 5.50085 25.3365 5.43193C25.1724 5.36301 24.9765 5.2895 24.8033 5.22976C24.6301 5.17003 24.4524 5.11949 24.2473 5.05976C24.0422 5.00003 23.8691 4.95408 23.6913 4.91273C23.544 4.87501 23.4129 4.79012 23.3175 4.6708C23.2222 4.55149 23.1679 4.40421 23.1627 4.25108L22.9895 2.35805C22.9823 2.29106 22.9638 2.2258 22.9348 2.16507C22.9068 2.11554 22.8715 2.07061 22.83 2.03182C22.7888 1.99368 22.7386 1.96679 22.6842 1.95371C22.6227 1.93954 22.5588 1.93954 22.4973 1.95371L20.0774 2.19264C20.0127 2.20141 19.9497 2.22 19.8905 2.24778C19.8313 2.28038 19.7787 2.32404 19.7356 2.37643C19.6997 2.42175 19.6719 2.47307 19.6536 2.52806C19.6442 2.57816 19.6442 2.62958 19.6536 2.67968L19.8222 4.46704C19.8379 4.63243 19.7953 4.7981 19.702 4.93503C19.6087 5.07196 19.4705 5.17142 19.3118 5.21598C19.1659 5.26652 19.0019 5.32625 18.815 5.40437C18.6282 5.48248 18.4687 5.56059 18.3228 5.6387H18.2955C18.1405 5.7214 17.9765 5.8087 17.8398 5.9006H17.7942C17.6392 5.99249 17.4889 6.08898 17.3385 6.18547C17.2141 6.26841 17.0668 6.30952 16.9178 6.30291C16.7688 6.29631 16.6257 6.24233 16.509 6.14871L14.9322 4.91732C14.8842 4.87839 14.8304 4.84737 14.7727 4.82543C14.7277 4.81532 14.681 4.81532 14.636 4.82543C14.5709 4.83482 14.5077 4.85501 14.4491 4.88516H14.4218C14.3795 4.91537 14.3412 4.95088 14.3079 4.99084L12.7812 6.8609C12.7352 6.91675 12.6996 6.98059 12.6764 7.04928C12.6673 7.09787 12.6673 7.14773 12.6764 7.19631V7.22848C12.6811 7.28308 12.6966 7.33619 12.7219 7.3847V7.40767C12.7521 7.4529 12.789 7.49319 12.8313 7.52714L14.1985 8.68961C14.3239 8.79293 14.4095 8.93731 14.4403 9.09764C14.4711 9.25798 14.4452 9.42413 14.3671 9.5672C14.2853 9.7166 14.2108 9.86994 14.1438 10.0267C14.068 10.2024 14.0011 10.3818 13.9433 10.5643C13.8886 10.7343 13.8293 10.9181 13.7701 11.1248C13.7109 11.3316 13.6653 11.5108 13.6243 11.6854C13.596 11.836 13.5198 11.9732 13.407 12.076C13.2943 12.1789 13.1514 12.2418 12.9999 12.2551L11.1178 12.4297C11.0528 12.437 10.9895 12.4556 10.9309 12.4849C10.8794 12.5135 10.8332 12.5508 10.7942 12.5951C10.7587 12.6383 10.7324 12.6884 10.7167 12.7422C10.7044 12.8028 10.7044 12.8653 10.7167 12.926L10.9537 15.3658C10.9603 15.4329 10.9788 15.4983 11.0084 15.5587C11.0388 15.6185 11.0806 15.6716 11.1314 15.715C11.1775 15.7495 11.2281 15.7773 11.2818 15.7977C11.3376 15.8074 11.3946 15.8074 11.4504 15.7977L13.2232 15.6277C13.383 15.6176 13.5412 15.6633 13.6715 15.757C13.8018 15.8507 13.8961 15.9867 13.9387 16.1423C13.9889 16.2893 14.0527 16.4593 14.1301 16.6431C14.2076 16.8269 14.2805 16.9877 14.3625 17.1439L14.3945 17.2083C14.4674 17.3507 14.5494 17.5069 14.6405 17.6677L14.9459 18.1732C15.0248 18.2986 15.0628 18.4458 15.0546 18.594C15.0464 18.7423 14.9925 18.8844 14.9003 19.0002L13.6379 20.567C13.6047 20.6125 13.5772 20.6618 13.5559 20.7141C13.5488 20.7582 13.5488 20.8032 13.5559 20.8473C13.5619 20.9145 13.5804 20.98 13.6106 21.0403C13.6401 21.0954 13.6804 21.1439 13.7291 21.1827C14.358 21.7111 15.0051 22.2303 15.6295 22.7633C15.6711 22.7935 15.7173 22.8168 15.7662 22.8322C15.8233 22.8441 15.8822 22.8441 15.9394 22.8322C16.0087 22.8249 16.0764 22.8062 16.1399 22.7771H16.1627C16.2059 22.7478 16.247 22.7156 16.2857 22.6806L17.425 21.3022C17.5275 21.1757 17.6703 21.0891 17.8292 21.0572C17.988 21.0254 18.1529 21.0502 18.2955 21.1276C18.4525 21.2124 18.6138 21.2891 18.7786 21.3573C18.9563 21.4354 19.134 21.4998 19.3118 21.5595C19.4895 21.6192 19.6581 21.6744 19.8678 21.7341C20.0774 21.7938 20.246 21.8398 20.4237 21.8811C20.5739 21.9155 20.7086 21.9991 20.8067 22.1188C20.9048 22.2385 20.9608 22.3876 20.9661 22.5428L21.1392 24.4128C21.1465 24.4789 21.1666 24.5429 21.1985 24.6012C21.2237 24.6539 21.2594 24.7008 21.3033 24.739C21.3473 24.773 21.3966 24.7993 21.4491 24.8172C21.5109 24.8291 21.5743 24.8291 21.636 24.8172L24.0514 24.5782C24.1194 24.5716 24.1857 24.5529 24.2473 24.5231C24.3015 24.4945 24.3508 24.4573 24.3931 24.4128C24.4342 24.3619 24.4666 24.3045 24.4889 24.2428C24.5027 24.1886 24.5027 24.1316 24.4889 24.0774L24.3248 22.2855C24.3083 22.1292 24.3443 21.9719 24.4269 21.8386C24.5095 21.7054 24.634 21.6038 24.7805 21.5503C24.9583 21.4906 25.136 21.4216 25.3092 21.3481H25.3639C25.5097 21.2838 25.6555 21.2103 25.8196 21.1276H25.8469C26.0201 21.0403 26.1887 20.9484 26.3391 20.8565L26.845 20.5486C26.9687 20.4688 27.1144 20.4306 27.261 20.4397C27.4077 20.4488 27.5476 20.5046 27.6607 20.5992L29.2011 21.8673C29.2472 21.9018 29.2978 21.9297 29.3515 21.95C29.3994 21.9616 29.4494 21.9616 29.4973 21.95C29.5625 21.9469 29.6262 21.9296 29.6842 21.8995C29.7363 21.8661 29.7825 21.8242 29.8209 21.7754C30.345 21.1414 30.8599 20.4889 31.3886 19.8594C31.4193 19.8196 31.4425 19.7745 31.457 19.7262C31.4666 19.6684 31.4666 19.6094 31.457 19.5516C31.449 19.4818 31.4306 19.4136 31.4023 19.3494C31.3728 19.2943 31.3343 19.2446 31.2883 19.2024L29.9211 18.0813C29.7931 17.979 29.705 17.8343 29.6725 17.6729C29.64 17.5115 29.6651 17.3436 29.7434 17.1991C29.8275 17.0407 29.9036 16.8782 29.9713 16.712C30.0487 16.5236 30.1171 16.3444 30.1718 16.179C30.2265 16.0136 30.2812 15.8206 30.3404 15.6139C30.3997 15.4071 30.4452 15.2371 30.4862 15.0533C30.521 14.8997 30.6059 14.7622 30.7274 14.6631C30.8489 14.5639 30.9999 14.5088 31.1562 14.5066L33.052 14.3044C33.1185 14.2971 33.1832 14.2785 33.2434 14.2492C33.2915 14.2195 33.3359 14.184 33.3756 14.1436C33.4092 14.0992 33.4354 14.0495 33.453 13.9965C33.4628 13.9388 33.4628 13.8797 33.453 13.8219L33.2161 11.3867C33.2082 11.3213 33.1897 11.2577 33.1614 11.1983V11.1708C33.13 11.1224 33.0916 11.079 33.0474 11.0421C33.0025 11.0059 32.9516 10.9779 32.8971 10.9594C32.8474 10.95 32.7964 10.95 32.7467 10.9594L30.9557 11.0881C30.8009 11.103 30.6456 11.0661 30.5137 10.9831C30.3819 10.9 30.2809 10.7754 30.2265 10.6286C30.1672 10.4586 30.1034 10.2794 30.0214 10.0956C29.9394 9.91181 29.8619 9.71883 29.7844 9.5672V9.53504C29.7071 9.37761 29.622 9.22426 29.5292 9.07557C29.4381 8.91934 29.3333 8.76312 29.2284 8.61609C29.1429 8.4891 29.1006 8.3375 29.108 8.18417C29.1154 8.03083 29.1721 7.88409 29.2695 7.76606L30.5182 6.20845C30.5577 6.16067 30.5885 6.10623 30.6093 6.04763C30.6189 6.00375 30.6189 5.95826 30.6093 5.91438C30.5999 5.84728 30.5799 5.78212 30.5501 5.7214V5.68924C30.5233 5.64825 30.4911 5.61115 30.4543 5.57897L28.7454 4.16378C28.6537 4.1394 28.5682 4.09553 28.4947 4.03513ZM47.3528 15.3382C47.2809 15.2765 47.1975 15.2301 47.1075 15.2017C47.0174 15.1732 46.9226 15.1634 46.8287 15.1728C46.6403 15.1943 46.4673 15.2881 46.3456 15.4347L45.6484 16.2847C45.4268 16.1691 45.1967 16.0708 44.9602 15.9907C44.7141 15.9125 44.5045 15.8436 44.2402 15.7839L44.1308 14.5984C44.1141 14.4092 44.024 14.2341 43.8801 14.1114C43.809 14.0506 43.726 14.0057 43.6365 13.9795C43.5469 13.9534 43.4529 13.9467 43.3606 13.9598L41.8749 14.1068C41.6981 14.1309 41.5361 14.2191 41.4192 14.3549C41.3573 14.4269 41.3108 14.511 41.2826 14.6019C41.2544 14.6928 41.245 14.7886 41.2551 14.8833L41.3554 15.9723C41.1147 16.0508 40.8813 16.1507 40.6581 16.2709C40.4368 16.3811 40.2236 16.507 40.0201 16.6477L39.0813 15.885C39.0133 15.8214 38.9325 15.7733 38.8444 15.744C38.7564 15.7147 38.6631 15.7048 38.5709 15.715C38.3815 15.7367 38.2081 15.8324 38.0878 15.9815L37.1764 17.1256C37.1154 17.198 37.0694 17.2821 37.0411 17.3728C37.0129 17.4635 37.0029 17.559 37.0118 17.6536C37.0207 17.7483 37.0484 17.8401 37.0931 17.9238C37.1378 18.0075 37.1986 18.0814 37.2721 18.141L38.065 18.844C37.9499 19.0666 37.8539 19.2987 37.7779 19.5378C37.6959 19.7859 37.6275 19.9973 37.5683 20.2638L36.3925 20.374C36.2052 20.3923 36.0321 20.4828 35.9094 20.6267C35.8535 20.7013 35.8137 20.7868 35.7925 20.8778C35.7713 20.9688 35.7692 21.0633 35.7864 21.1551L35.9322 22.6484C35.9505 22.836 36.0404 23.009 36.1829 23.1309C36.2531 23.1936 36.3357 23.2407 36.4252 23.2692C36.5147 23.2977 36.6091 23.307 36.7024 23.2963L37.7825 23.1952C37.8571 23.4356 37.9516 23.6692 38.065 23.8936C38.178 24.1206 38.3027 24.3415 38.4387 24.5553L37.6822 25.4742C37.6197 25.543 37.5727 25.6246 37.5444 25.7134C37.5161 25.8023 37.5071 25.8962 37.5182 25.9888C37.5444 26.1695 37.6371 26.3335 37.7779 26.4483L38.9309 27.4453C39.0033 27.5055 39.0871 27.55 39.1773 27.5761C39.2675 27.6022 39.362 27.6093 39.455 27.597C39.6439 27.5786 39.8193 27.4902 39.9472 27.3489L40.649 26.485C40.8693 26.6034 41.0996 26.7018 41.3372 26.7791C41.5732 26.8613 41.8136 26.9304 42.0572 26.9859L42.1666 28.1759C42.1862 28.363 42.2759 28.5355 42.4172 28.6584C42.4891 28.7196 42.5728 28.7651 42.663 28.792C42.7532 28.8189 42.848 28.8266 42.9413 28.8146L44.4224 28.6676C44.6079 28.6473 44.7788 28.557 44.901 28.4148C44.9628 28.3428 45.0093 28.2588 45.0375 28.1679C45.0658 28.077 45.0751 27.9812 45.065 27.8864L44.9602 26.7975C45.2016 26.7206 45.4351 26.6206 45.6575 26.4988C45.8815 26.3873 46.0991 26.263 46.3092 26.1267L47.2206 26.8894C47.292 26.9518 47.3754 26.9986 47.4656 27.0271C47.5558 27.0555 47.6508 27.065 47.7447 27.0548C47.8385 27.0461 47.9297 27.0184 48.0127 26.9734C48.0957 26.9284 48.1688 26.867 48.2278 26.7929L49.1757 25.635C49.2355 25.562 49.28 25.4776 49.3067 25.3868C49.3333 25.296 49.3414 25.2007 49.3307 25.1066C49.313 24.915 49.2233 24.7375 49.08 24.6104L48.2232 23.912C48.3524 23.6914 48.4607 23.4592 48.5468 23.2182C48.6277 22.9815 48.6962 22.7408 48.7519 22.4968L49.9322 22.3865C50.1102 22.3629 50.2729 22.2727 50.3879 22.1338C50.4489 22.0615 50.4942 21.9772 50.5209 21.8862C50.5476 21.7952 50.5551 21.6995 50.5429 21.6054L50.3971 20.1121C50.3716 19.9334 50.2825 19.7701 50.1464 19.6527C50.0754 19.5895 49.9921 19.5418 49.902 19.5125C49.8118 19.4833 49.7166 19.4731 49.6223 19.4827L48.5422 19.5883C48.461 19.3469 48.362 19.1119 48.246 18.8853C48.1415 18.6597 48.0164 18.4443 47.8723 18.2421L48.6334 17.2956C48.6946 17.2259 48.7409 17.1442 48.7691 17.0557C48.7973 16.9671 48.807 16.8735 48.7974 16.7809C48.7761 16.591 48.6831 16.4166 48.5377 16.2939L47.3984 15.352H47.3619L47.3528 15.3382ZM42.8502 18.4764C43.2368 18.4411 43.6265 18.4801 43.9986 18.5913C44.3554 18.7057 44.6877 18.8865 44.9784 19.1243C45.2674 19.365 45.5073 19.6599 45.6848 19.9927C45.8706 20.3343 45.9824 20.7117 46.0129 21.1C46.0482 21.4898 46.0095 21.8827 45.899 22.2579C45.7938 22.6189 45.6189 22.9553 45.3843 23.2479C45.1496 23.5404 44.8599 23.7833 44.5318 23.9625C44.1918 24.1461 43.8179 24.2571 43.4335 24.2888C43.0469 24.3266 42.6567 24.2876 42.2851 24.1739C41.9272 24.0611 41.5933 23.8819 41.3007 23.6455C41.0143 23.4017 40.7762 23.1055 40.5989 22.7725C40.4029 22.4304 40.2831 22.0494 40.248 21.656C40.1867 21.0826 40.2972 20.5039 40.5653 19.9945C40.8333 19.4851 41.2466 19.0684 41.7519 18.798C42.0902 18.6097 42.4648 18.4969 42.8502 18.4672V18.4764ZM28.7499 2.58779C28.9094 2.6383 29.0624 2.70771 29.2057 2.79455C29.3061 2.81879 29.3996 2.86595 29.4791 2.93239L31.3157 4.47163C31.4861 4.61241 31.631 4.78185 31.7441 4.97246L31.7805 5.03219C31.8967 5.24891 31.9709 5.48592 31.9993 5.73059C32.0311 5.98747 32.0046 6.24827 31.9218 6.49332C31.8495 6.7086 31.7399 6.90927 31.5982 7.08604L30.6594 8.2623L30.7187 8.35879C30.8382 8.56072 30.9462 8.76936 31.0422 8.98367C31.1516 9.19809 31.2428 9.39567 31.3157 9.57639L31.3521 9.66829L32.5826 9.54882C32.8214 9.52093 33.0634 9.54282 33.2935 9.61315H33.33C33.5413 9.68374 33.7387 9.79104 33.9133 9.93019L33.9771 9.98532C34.1398 10.1293 34.277 10.3003 34.3827 10.4907L34.4192 10.5505C34.524 10.7588 34.5904 10.9845 34.6152 11.2167C34.6152 11.8324 34.7701 13.027 34.8521 13.6703C34.8794 13.9027 34.8624 14.1382 34.802 14.3641V14.4055C34.7324 14.6424 34.6162 14.8627 34.4602 15.0533C34.3105 15.2403 34.1263 15.3963 33.9179 15.5128C33.7015 15.6248 33.4668 15.6964 33.2252 15.7242L31.776 15.8528L31.7395 15.9861C31.6894 16.1698 31.6256 16.3766 31.5435 16.6109C31.4615 16.8453 31.3932 17.0704 31.3157 17.2404L31.2792 17.3185L32.2773 18.1318C32.4667 18.2969 32.6216 18.4984 32.733 18.7245C32.8162 18.9262 32.8655 19.1405 32.8788 19.3586V19.3816C32.9095 19.6281 32.8893 19.8784 32.8196 20.1167C32.7563 20.3406 32.6528 20.5508 32.5142 20.737L30.9237 22.676C30.7718 22.8644 30.5844 23.0205 30.3723 23.1355C30.1575 23.2567 29.9201 23.3317 29.675 23.356C29.432 23.3845 29.1857 23.3642 28.9504 23.2963H28.914C28.7066 23.2253 28.5125 23.1197 28.3398 22.9839L27.1594 22.0144L27.0409 22.0833C26.8404 22.2027 26.6445 22.3084 26.4576 22.4003C26.2708 22.4922 26.1112 22.5749 25.9244 22.6576L25.7603 22.7128L25.8879 23.9533C25.9162 24.2087 25.8898 24.4673 25.8105 24.7115C25.7336 24.9378 25.6162 25.1481 25.4641 25.3318L25.4368 25.3593C25.2893 25.5265 25.1153 25.6678 24.9218 25.7775H24.8762C24.6707 25.8818 24.4486 25.9487 24.22 25.975C23.6093 25.975 22.4244 26.1358 21.7864 26.2186C21.5418 26.2457 21.2943 26.2255 21.0572 26.1588C20.8219 26.0873 20.6033 25.9685 20.4146 25.8096H20.3918C20.2166 25.6529 20.07 25.4662 19.9589 25.2583C19.8451 25.0412 19.7739 24.8041 19.7493 24.5599L19.6171 23.1033L19.4895 23.0666L18.8697 22.869C18.651 22.7955 18.414 22.7174 18.2454 22.6347L18.1588 22.5979L17.3385 23.6041C17.1881 23.7758 17.0073 23.9176 16.8053 24.0223L16.7551 24.0544C16.5549 24.149 16.3411 24.211 16.1217 24.2382H16.0989C15.8528 24.2688 15.6032 24.2485 15.3652 24.1785C15.1462 24.1117 14.9409 24.0059 14.759 23.866L12.8313 22.2625C12.6455 22.1083 12.4907 21.9196 12.3756 21.7065C12.2593 21.4915 12.1851 21.2559 12.1568 21.0127C12.1273 20.7649 12.1538 20.5136 12.2343 20.2775C12.3017 20.0657 12.4067 19.868 12.5442 19.694L13.5058 18.504L13.4556 18.3891C13.3554 18.2191 13.2597 18.0353 13.164 17.8423C13.05 17.631 12.9543 17.4288 12.8678 17.222L12.8267 17.1164L11.6054 17.2312C11.3539 17.2611 11.099 17.236 10.858 17.1577C10.6456 17.0875 10.4479 16.9784 10.2747 16.8361L10.2063 16.7855C10.0205 16.6241 9.86602 16.4294 9.75057 16.2112C9.64642 16.0043 9.58004 15.7802 9.55461 15.5496C9.55461 14.9293 9.3951 13.753 9.31307 13.1006C9.27557 12.8477 9.28952 12.5897 9.35409 12.3424C9.42503 12.1051 9.54284 11.8848 9.70044 11.6946C9.85423 11.5099 10.0394 11.3543 10.2473 11.2351C10.4629 11.1219 10.6981 11.0517 10.94 11.0283L12.3847 10.8951L12.4211 10.7618C12.4758 10.5826 12.5396 10.3713 12.6171 10.1415C12.6946 9.91181 12.7721 9.68207 12.8495 9.50747L12.886 9.42017L11.9517 8.62069C11.771 8.47936 11.6166 8.30665 11.496 8.11067L11.4687 8.06472C11.3643 7.86147 11.2994 7.64004 11.2773 7.41227V7.37551C11.2513 7.12649 11.2761 6.87476 11.3502 6.63576C11.4259 6.3986 11.5466 6.17856 11.7056 5.9879L13.2323 4.10865C13.3718 3.93621 13.5418 3.79133 13.7336 3.68134L13.7883 3.64458C14.0022 3.52495 14.2378 3.44995 14.481 3.42403C14.7313 3.39197 14.9856 3.41871 15.2239 3.50214C15.4371 3.57582 15.636 3.6862 15.8118 3.82837L16.983 4.77948L17.1015 4.68758C17.2883 4.57731 17.4797 4.47623 17.6711 4.37974C17.8625 4.28325 18.0722 4.17757 18.259 4.09486L18.3684 4.05351L18.2454 2.81752C18.2177 2.57671 18.2394 2.33274 18.3092 2.10074V2.06399C18.3792 1.85096 18.4856 1.65193 18.6236 1.47586L18.692 1.4391C18.8488 1.25209 19.0389 1.09626 19.2525 0.979627C19.4582 0.870128 19.6823 0.800023 19.9133 0.772863C20.524 0.772863 21.7089 0.616642 22.3469 0.533937C22.5915 0.503965 22.8395 0.524285 23.0761 0.593668C23.3111 0.66382 23.5296 0.781024 23.7187 0.938274C23.902 1.0914 24.0564 1.27663 24.1744 1.48505C24.2908 1.70821 24.365 1.95128 24.3931 2.20183L24.5208 3.66296L24.6529 3.69971C24.8306 3.75026 25.0403 3.81458 25.2727 3.89269L25.8971 4.12703L25.9882 4.16838L26.7766 3.20808C26.9305 3.01991 27.1194 2.86384 27.3326 2.7486C27.5507 2.62574 27.7908 2.54765 28.039 2.51887C28.2856 2.48807 28.536 2.51158 28.7727 2.58779H28.7499ZM21.5266 7.92229C21.8769 7.89245 22.2291 7.89245 22.5793 7.92229C22.944 7.9583 23.3043 8.03064 23.6549 8.13824C23.9888 8.24394 24.3123 8.38084 24.621 8.54717L24.662 8.57014C24.9508 8.73133 25.2253 8.91734 25.4823 9.12611C26.0174 9.5833 26.4639 10.1363 26.7994 10.7572C26.9762 11.0757 27.1169 11.4133 27.2187 11.7635C27.3248 12.1164 27.392 12.4801 27.4192 12.8478C27.451 13.1994 27.451 13.5531 27.4192 13.9046C27.3881 14.2726 27.3178 14.6362 27.2096 14.989V15.0349C27.1062 15.3524 26.9751 15.6599 26.8176 15.9539C26.6529 16.2608 26.4623 16.5529 26.248 16.8269L26.2024 16.8774C25.7585 17.4022 25.2224 17.8399 24.621 18.1686C24.3023 18.3441 23.9662 18.4858 23.6184 18.5913C23.2688 18.6935 22.9101 18.7612 22.5474 18.7934C22.1911 18.8233 21.8329 18.8233 21.4765 18.7934C21.1117 18.758 20.7514 18.6856 20.401 18.5775C20.0688 18.4709 19.7469 18.3341 19.4394 18.1686C19.1352 18.0004 18.8455 17.8067 18.5735 17.5896C18.308 17.3649 18.0639 17.1157 17.8443 16.8453C17.6216 16.5693 17.4233 16.2741 17.2519 15.9631C17.0789 15.6417 16.9399 15.3029 16.8372 14.9522C16.731 14.5993 16.6638 14.2357 16.6366 13.8679C16.6048 13.5163 16.6048 13.1626 16.6366 12.8111C16.6677 12.4431 16.738 12.0796 16.8463 11.7267C16.9502 11.3897 17.0861 11.0635 17.2519 10.7526L17.2747 10.7113C17.4323 10.4173 17.6169 10.1389 17.8261 9.87965L17.8625 9.8337C18.0764 9.57672 18.3145 9.34129 18.5735 9.1307C18.8473 8.9076 19.1401 8.70926 19.4485 8.53798C19.7655 8.36211 20.1 8.22043 20.4465 8.11526C20.7978 8.01349 21.158 7.94579 21.5221 7.9131L21.5266 7.92229ZM22.4381 9.33287C22.1683 9.3076 21.8967 9.3076 21.6269 9.33287C21.3599 9.35527 21.0957 9.40452 20.8385 9.4799C20.587 9.55507 20.3442 9.65672 20.1139 9.78316C19.878 9.91683 19.6539 10.0705 19.4439 10.2426C19.2568 10.3959 19.083 10.565 18.9244 10.7481C18.7701 10.9424 18.6328 11.15 18.5142 11.3683V11.4051C18.3922 11.6389 18.2915 11.8834 18.2135 12.1357C18.1187 12.4006 18.0515 12.6746 18.0129 12.9535C17.9901 13.2257 17.9901 13.4993 18.0129 13.7714C18.0349 14.0425 18.0853 14.3105 18.1633 14.5709C18.2372 14.8297 18.3396 15.0794 18.4687 15.3152C18.5996 15.5526 18.7522 15.7772 18.9244 15.9861C19.0848 16.1876 19.265 16.3723 19.4622 16.5374C19.6634 16.6987 19.8784 16.8417 20.1047 16.9647C20.3386 17.0882 20.5825 17.1912 20.8339 17.2726C21.0902 17.3538 21.3546 17.4062 21.6223 17.4288C21.8967 17.4541 22.1728 17.4541 22.4472 17.4288C22.7156 17.406 22.9812 17.3568 23.2402 17.2818C23.4824 17.2054 23.7161 17.1038 23.9374 16.9785C24.1743 16.8465 24.3986 16.6927 24.6073 16.519C24.7948 16.3629 24.9687 16.1907 25.1269 16.0044C25.2987 15.7985 25.4513 15.577 25.5826 15.3428C25.6988 15.1179 25.7978 14.8844 25.8788 14.6444V14.6168C25.958 14.3563 26.0114 14.0885 26.0383 13.8173C26.0611 13.5452 26.0611 13.2716 26.0383 12.9995C26.0164 12.7284 25.966 12.4604 25.8879 12.2C25.8137 11.9464 25.7129 11.7015 25.5872 11.4694C25.4573 11.2314 25.3046 11.0067 25.1314 10.7986C24.971 10.5971 24.7908 10.4124 24.5937 10.2472C24.4032 10.0942 24.2005 9.95743 23.9876 9.83829H23.9511C23.7173 9.71458 23.4734 9.61157 23.2219 9.53045C22.9671 9.44979 22.7042 9.39741 22.4381 9.37422V9.33287ZM7.6451 39.966C7.96617 39.9651 8.28029 40.0603 8.54769 40.2395C8.81509 40.4186 9.02375 40.6738 9.14725 40.9726C9.27074 41.2714 9.30352 41.6004 9.24144 41.918C9.17935 42.2356 9.02519 42.5275 8.79848 42.7568C8.57176 42.986 8.28269 43.1422 7.96785 43.2057C7.65301 43.2692 7.32657 43.2371 7.02985 43.1134C6.73313 42.9897 6.47948 42.7801 6.30101 42.511C6.12253 42.2419 6.02726 41.9255 6.02726 41.6018C6.02726 41.1687 6.19757 40.7534 6.50084 40.4467C6.80411 40.1401 7.21561 39.9672 7.6451 39.966Z" fill="#FF99D0"/>
</g>
<defs>
<clipPath id="clip0_0_228">
<rect width="56" height="50" fill="white" transform="translate(0.239502 0.52002)"/>
</clipPath>
</defs>
</svg>
