<svg width="49" height="57" viewBox="0 0 49 57" fill="none" xmlns="http://www.w3.org/2000/svg">
<path fill-rule="evenodd" clip-rule="evenodd" d="M19.3599 8.26276C19.5577 8.31745 19.7785 8.29466 20.0176 8.20352L19.6267 5.98867C19.7739 5.43268 19.9993 4.99974 20.2982 4.68073C20.611 4.34805 21.002 4.14297 21.4665 4.05182C22.0783 4.00625 22.2623 4.45286 22.8786 4.84479C24.7553 6.02969 26.3376 6.43073 28.6558 6.46263L28.1774 8.37669C28.3292 8.44049 28.5132 8.45872 28.6972 8.42682C29.0697 8.39492 29.2951 8.42682 29.3503 8.54531C29.4377 8.71849 29.3595 9.07852 29.0973 9.66185L27.8324 11.7263C27.3633 12.4919 26.8849 13.2621 26.2824 13.8181C25.7074 14.3513 24.9991 14.7068 24.0285 14.7068C23.1362 14.7068 22.4555 14.3604 21.8989 13.8591C21.3147 13.3305 20.8456 12.6104 20.3948 11.8995L19.2679 10.1267L19.2633 10.1176C18.9229 9.61172 18.7435 9.17878 18.7343 8.84609C18.7297 8.73672 18.7481 8.64102 18.7849 8.56354C18.8171 8.49518 18.8677 8.4405 18.9321 8.39492C19.0379 8.32656 19.1759 8.28099 19.3599 8.26276ZM20.3948 16.6072L22.4095 22.4724L23.4214 18.9906L22.9246 18.4529C22.6992 18.1293 22.6532 17.8467 22.7774 17.6052C23.0442 17.0766 23.6008 17.1768 24.1205 17.1768C24.6633 17.1768 25.3348 17.0766 25.5096 17.751C25.5648 17.9789 25.4958 18.2113 25.3348 18.4574L24.8381 18.9952L25.85 22.477L27.6715 16.6117C28.987 17.7829 32.8783 18.0199 34.3271 18.8174C34.7871 19.0727 35.1965 19.3917 35.5322 19.8292C36.0382 20.49 36.3464 21.3513 36.4292 22.4496L36.7328 27.1937C36.6592 27.9685 36.2176 28.4151 35.3437 28.4835H24.1251H12.7226C11.8487 28.4197 11.4071 27.973 11.3335 27.1937L11.6371 22.4496C11.7199 21.3559 12.0327 20.49 12.5386 19.8292C12.8698 19.3917 13.2838 19.0727 13.7437 18.8174C15.188 18.0154 19.0793 17.7784 20.3948 16.6072ZM26.6779 29.6638V35.0414H46.5346V37.5889V38.9652V45.2543H42.5743V38.9652H26.6779V44.6254H22.4555V38.9652H6.4211V45.2543H2.46081V38.9652V37.5889V35.0414H22.4555V29.6638H26.6779ZM44.5567 47.7198C47.0084 47.7198 48.9954 49.6885 48.9954 52.1221C48.9954 54.5557 47.0084 56.5199 44.5567 56.5199C42.1051 56.5199 40.1135 54.5512 40.1135 52.1221C40.1135 49.6931 42.1051 47.7198 44.5567 47.7198ZM4.43866 47.7198C6.89027 47.7198 8.88191 49.6885 8.88191 52.1221C8.88191 54.5557 6.89487 56.5199 4.43866 56.5199C1.98245 56.5199 0 54.5512 0 52.1176C0 49.684 1.98705 47.7198 4.43866 47.7198ZM24.5667 47.7198C27.0183 47.7198 29.0054 49.6885 29.0054 52.1221C29.0054 54.5557 27.0183 56.5199 24.5667 56.5199C22.1151 56.5199 20.128 54.5512 20.128 52.1221C20.128 49.6931 22.1151 47.7198 24.5667 47.7198ZM29.4331 7.77057L29.5021 4.91771C29.4193 3.74193 29.0238 2.85781 28.4028 2.18789C26.8711 0.542708 24.0055 0.11888 21.8437 0.89362C21.4803 1.02578 21.1354 1.18984 20.8226 1.38581C19.9303 1.95091 19.2081 2.76667 18.9229 3.7875C18.8539 4.02904 18.8079 4.27057 18.7849 4.50755C18.7389 5.5056 18.7665 6.69961 18.8355 7.65208C18.7297 7.6931 18.6286 7.73867 18.5412 7.79792C18.3618 7.91641 18.2284 8.07591 18.141 8.2582C18.0582 8.43594 18.0214 8.63646 18.026 8.85521C18.0398 9.32005 18.256 9.8806 18.67 10.4958L19.7969 12.2686C20.2706 13.016 20.772 13.7816 21.4251 14.3741C22.1059 14.9893 22.9338 15.4086 24.0377 15.4132C25.2198 15.4177 26.08 14.9848 26.7837 14.3331C27.4553 13.7087 27.9612 12.8975 28.458 12.0909L29.7413 9.99909C29.7505 9.98542 29.7551 9.97174 29.7643 9.95807C30.1185 9.16055 30.1921 8.6 30.0081 8.2263C29.8839 7.99844 29.6953 7.84805 29.4331 7.77057Z" fill="#FFBE18"/>
</svg>
