<svg width="62" height="52" viewBox="0 0 62 52" fill="none" xmlns="http://www.w3.org/2000/svg">
<g clip-path="url(#clip0_0_221)">
<path d="M25.5115 48.233C25.8768 48.2545 26.22 48.414 26.471 48.6791C26.722 48.9442 26.8618 49.2947 26.8618 49.659C26.8618 50.0234 26.722 50.3739 26.471 50.639C26.22 50.9041 25.8768 51.0636 25.5115 51.0851C21.0859 51.0839 16.7374 49.9309 12.8971 47.7406C9.05691 45.5503 5.85834 42.3985 3.61852 38.5979C1.3787 34.7974 0.175431 30.4799 0.128 26.0735C0.0805682 21.6671 1.19062 17.325 3.34811 13.4774C5.50561 9.62991 8.6356 6.41067 12.4278 4.13887C16.22 1.86707 20.5427 0.621615 24.9673 0.525976C29.3919 0.430337 33.7648 1.48784 37.6524 3.59364C41.5401 5.69943 44.8074 8.78039 47.1306 12.5311L47.4334 11.0482C47.4525 10.8607 47.5105 10.6791 47.6036 10.515C47.6968 10.3508 47.8231 10.2077 47.9745 10.0946C48.126 9.98151 48.2994 9.9009 48.4837 9.85786C48.6681 9.81483 48.8594 9.8103 49.0456 9.84456C49.2317 9.87883 49.4088 9.95115 49.5655 10.0569C49.7222 10.1628 49.8551 10.2997 49.956 10.4593C50.0569 10.6188 50.1234 10.7975 50.1515 10.9839C50.1796 11.1703 50.1685 11.3605 50.119 11.5425L49.1262 16.4112C49.0864 16.5856 49.0124 16.7505 48.9084 16.8964C48.8045 17.0423 48.6726 17.1663 48.5204 17.2614C48.3682 17.3564 48.1987 17.4206 48.0215 17.4503C47.8444 17.48 47.6631 17.4746 47.488 17.4343L42.7025 16.337C42.3597 16.2476 42.0653 16.0289 41.8815 15.7272C41.6977 15.4256 41.6389 15.0646 41.7175 14.7205C41.7962 14.3765 42.0061 14.0763 42.3029 13.8836C42.5998 13.6909 42.9603 13.6206 43.3082 13.6877L44.6783 14.004C42.6146 10.6758 39.713 7.94238 36.2612 6.07493C32.8094 4.20748 28.9274 3.27081 25 3.35781C21.0725 3.4448 17.2361 4.55244 13.8712 6.57089C10.5063 8.58933 7.72962 11.4485 5.8166 14.8648C3.90359 18.2812 2.92064 22.1361 2.96523 26.0474C3.00982 29.9586 4.08039 33.7903 6.07079 37.1625C8.0612 40.5348 10.9023 43.3304 14.3124 45.2723C17.7225 47.2142 21.5831 48.2348 25.5115 48.233ZM35.3158 24.9277C35.4481 25.0323 35.555 25.1653 35.6285 25.3168C35.702 25.4683 35.7401 25.6343 35.7401 25.8025C35.7401 25.9708 35.702 26.1368 35.6285 26.2883C35.555 26.4398 35.4481 26.5728 35.3158 26.6774L32.8834 28.5458C32.6906 28.6934 32.4542 28.7734 32.211 28.7733C31.9678 28.7732 31.7314 28.693 31.5388 28.5452C31.3461 28.3974 31.208 28.1903 31.1459 27.9562C31.0838 27.722 31.1013 27.474 31.1955 27.2508H28.0184C27.7998 27.627 27.4987 27.9492 27.1375 28.1934C26.7764 28.4376 26.3645 28.5974 25.9326 28.6609C25.5007 28.7244 25.06 28.6899 24.6434 28.5601C24.2268 28.4303 23.8449 28.2085 23.5264 27.9113C23.2079 27.614 22.961 27.249 22.804 26.8434C22.647 26.4378 22.584 26.0021 22.6197 25.5689C22.6555 25.1357 22.789 24.7161 23.0104 24.3415C23.2317 23.9668 23.5352 23.6468 23.8982 23.4053L23.9478 18.2796C23.7224 18.3825 23.4685 18.4062 23.2278 18.3471C22.987 18.2879 22.7735 18.1492 22.622 17.9537C22.4705 17.7581 22.3901 17.5173 22.3938 17.2703C22.3974 17.0234 22.485 16.785 22.6422 16.5941L24.5733 14.2116C24.6725 14.0894 24.797 13.9899 24.9384 13.9199C25.0798 13.85 25.2346 13.8112 25.3924 13.8063C25.5691 13.8025 25.744 13.8415 25.9023 13.9198C26.0605 13.9981 26.1973 14.1136 26.3008 14.2561L28.1277 16.7275C28.2677 16.9189 28.3419 17.1502 28.339 17.387C28.3362 17.6238 28.2565 17.8533 28.1118 18.0413C27.9672 18.2292 27.7653 18.3655 27.5365 18.4299C27.3076 18.4942 27.0639 18.4831 26.8419 18.3982L26.8072 23.2372C27.3088 23.489 27.7262 23.8806 28.0085 24.3642H31.1856C31.0834 24.1391 31.0604 23.8862 31.1204 23.6465C31.1804 23.4068 31.3199 23.1943 31.5163 23.0433C31.7127 22.8924 31.9545 22.8118 32.2026 22.8147C32.4507 22.8176 32.6906 22.9038 32.8834 23.0593L35.3158 24.9277ZM41.0445 38.728L43.5762 45.3464L44.852 41.7382L44.2265 41.0511C43.7599 40.369 43.9188 39.5683 44.7875 39.4546C45.1014 39.4296 45.4168 39.4296 45.7307 39.4546C46.077 39.4329 46.4246 39.4461 46.7682 39.4941C47.5724 39.6721 47.6568 40.4481 47.2646 41.0709L46.6391 41.7481L47.9149 45.3563L50.2034 38.7379C51.8565 40.2207 56.3044 40.5173 58.1461 41.5256C60.6679 42.9343 60.5984 45.1833 61.1246 47.6992C56.0959 52.6915 35.3655 52.9139 30.1183 47.6893C30.6693 45.2179 30.6147 42.8997 33.1266 41.5158C35.3605 40.2751 39.2127 40.369 41.0693 38.728H41.0445ZM40.5779 34.2795C40.361 34.2903 40.1456 34.2388 39.9573 34.1312C39.6895 33.9691 39.4821 33.7244 39.3666 33.4342C39.0936 32.8263 38.8702 31.2248 39.5652 30.7651L39.4361 30.6811V30.5032C39.4361 30.1819 39.4013 29.7914 39.3964 29.3811C39.3964 27.8983 39.3418 26.0497 38.0908 25.6839L37.5547 25.5257L37.9071 25.1056C38.8335 23.9685 39.8822 22.9358 41.0346 22.0262C42.0783 21.1618 43.3251 20.5751 44.6584 20.3209C45.2775 20.2254 45.9098 20.2615 46.5139 20.4268C47.118 20.5921 47.68 20.8828 48.1631 21.2799C48.5081 21.5553 48.8257 21.8631 49.1113 22.1992C49.6673 22.2561 50.2053 22.4279 50.6909 22.7037C51.1764 22.9794 51.5988 23.3531 51.931 23.8007C52.3457 24.3365 52.6555 24.9451 52.8444 25.5949C53.046 26.2541 53.13 26.9433 53.0926 27.6314C53.0524 28.8793 52.5274 30.063 51.6281 30.9332C51.787 30.9369 51.943 30.9758 52.0849 31.0469C52.3016 31.1878 52.4611 31.4009 52.5347 31.648C52.6084 31.8952 52.5915 32.1604 52.4869 32.3963C52.3529 32.8065 52.1792 33.286 52.0154 33.6863C51.8218 34.2251 51.5189 34.3289 50.9729 34.2696C49.7219 39.7067 42.1614 39.9044 40.5779 34.2696V34.2795ZM15.1115 10.292C15.0223 10.1534 14.9623 9.99822 14.935 9.83585C14.9078 9.67348 14.914 9.5073 14.9532 9.34738C14.9924 9.18745 15.0638 9.03712 15.1631 8.90549C15.2623 8.77386 15.3874 8.66366 15.5307 8.5816C15.6741 8.49953 15.8326 8.44729 15.9968 8.42805C16.161 8.4088 16.3274 8.42296 16.4859 8.46965C16.6445 8.51634 16.7919 8.5946 16.9191 8.69969C17.0464 8.80477 17.1509 8.93449 17.2263 9.08098L18.1347 10.6528C18.2993 10.934 18.345 11.2688 18.2616 11.5835C18.1783 11.8982 17.9729 12.167 17.6904 12.3309C17.408 12.4947 17.0718 12.5402 16.7558 12.4572C16.4397 12.3743 16.1697 12.1697 16.0051 11.8885L15.1115 10.292ZM8.7127 17.553C8.44983 17.3823 8.26271 17.1177 8.18987 16.8137C8.11703 16.5098 8.16402 16.1896 8.32117 15.9191C8.47832 15.6486 8.73365 15.4484 9.0346 15.3597C9.33554 15.271 9.65918 15.3006 9.93886 15.4424L11.5373 16.337C11.6791 16.4153 11.8038 16.521 11.9042 16.6478C12.0045 16.7746 12.0785 16.92 12.1218 17.0756C12.1651 17.2312 12.1769 17.3938 12.1564 17.554C12.1359 17.7141 12.0836 17.8686 12.0025 18.0084C11.9214 18.1482 11.8132 18.2705 11.6841 18.3683C11.555 18.466 11.4077 18.5371 11.2508 18.5775C11.0938 18.618 10.9303 18.6269 10.7698 18.6037C10.6094 18.5806 10.4551 18.5258 10.3161 18.4427L8.73256 17.5381L8.7127 17.553ZM6.82135 27.0185C6.49747 27.0185 6.18685 26.8904 5.95783 26.6623C5.72882 26.4343 5.60015 26.125 5.60015 25.8025C5.60015 25.4801 5.72882 25.1708 5.95783 24.9427C6.18685 24.7147 6.49747 24.5866 6.82135 24.5866H8.64817C8.97205 24.5866 9.28266 24.7147 9.51168 24.9427C9.7407 25.1708 9.86936 25.4801 9.86936 25.8025C9.86936 26.125 9.7407 26.4343 9.51168 26.6623C9.28266 26.8904 8.97205 27.0185 8.64817 27.0185H6.82135ZM9.9339 36.1577C9.65475 36.3002 9.33124 36.3303 9.03044 36.2417C8.72964 36.1531 8.47462 35.9526 8.31823 35.6819C8.16184 35.4111 8.11609 35.0908 8.19046 34.7874C8.26482 34.484 8.4536 34.2207 8.71767 34.0521L10.2963 33.1426C10.4351 33.0615 10.5887 33.0084 10.7482 32.9863C10.9076 32.9643 11.0699 32.9737 11.2257 33.0141C11.3815 33.0545 11.5278 33.125 11.6562 33.2217C11.7846 33.3184 11.8927 33.4393 11.9742 33.5776C12.0557 33.7158 12.109 33.8687 12.1312 34.0275C12.1533 34.1863 12.1438 34.3479 12.1033 34.503C12.0627 34.6581 11.9918 34.8038 11.8947 34.9317C11.7976 35.0595 11.6762 35.1671 11.5373 35.2483L9.9339 36.1577ZM33.7968 9.07604C33.9594 8.79681 34.2267 8.59334 34.54 8.51038C34.8532 8.42741 35.1868 8.47176 35.4672 8.63366C35.7477 8.79555 35.952 9.06174 36.0353 9.37366C36.1186 9.68559 36.0741 10.0177 35.9115 10.2969L34.9981 11.8885C34.9166 12.0268 34.8086 12.1477 34.6801 12.2444C34.5517 12.3411 34.4054 12.4116 34.2496 12.452C34.0938 12.4924 33.9315 12.5018 33.7721 12.4798C33.6126 12.4577 33.4591 12.4046 33.3202 12.3235C33.1813 12.2423 33.0599 12.1348 32.9628 12.0069C32.8657 11.879 32.7948 11.7334 32.7543 11.5782C32.7137 11.4231 32.7042 11.2615 32.7264 11.1027C32.7485 10.9439 32.8019 10.7911 32.8834 10.6528L33.7968 9.07604ZM17.2263 42.534C17.0644 42.8139 16.7974 43.0182 16.4841 43.1021C16.1708 43.186 15.8369 43.1425 15.5558 42.9813C15.2748 42.8201 15.0695 42.5542 14.9853 42.2423C14.901 41.9304 14.9446 41.5979 15.1066 41.318L16.0051 39.7314C16.0856 39.5931 16.1927 39.472 16.3202 39.375C16.4477 39.2779 16.5932 39.2068 16.7483 39.1657C16.9034 39.1247 17.0651 39.1144 17.2242 39.1356C17.3833 39.1567 17.5367 39.2089 17.6756 39.289C17.8144 39.3692 17.936 39.4758 18.0335 39.6028C18.131 39.7297 18.2024 39.8746 18.2437 40.029C18.2849 40.1835 18.2952 40.3445 18.274 40.5029C18.2527 40.6613 18.2004 40.814 18.1198 40.9523L17.2263 42.534ZM24.2903 7.19282C24.3101 6.88438 24.4471 6.59501 24.6735 6.38354C24.8999 6.17207 25.1986 6.05438 25.509 6.05438C25.8195 6.05438 26.1182 6.17207 26.3446 6.38354C26.571 6.59501 26.708 6.88438 26.7278 7.19282V9.01178C26.7384 9.17765 26.7148 9.34393 26.6583 9.50035C26.6019 9.65676 26.5139 9.8 26.3997 9.92122C26.2854 10.0424 26.1475 10.139 25.9943 10.2051C25.8411 10.2711 25.676 10.3052 25.509 10.3052C25.3421 10.3052 25.177 10.2711 25.0238 10.2051C24.8706 10.139 24.7327 10.0424 24.6184 9.92122C24.5042 9.8 24.4162 9.65676 24.3598 9.50035C24.3033 9.34393 24.2797 9.17765 24.2903 9.01178V7.19282ZM26.7327 44.4073C26.7327 44.7298 26.6041 45.0391 26.375 45.2671C26.146 45.4951 25.8354 45.6232 25.5115 45.6232C25.1877 45.6232 24.877 45.4951 24.648 45.2671C24.419 45.0391 24.2903 44.7298 24.2903 44.4073V42.5933C24.2903 42.2708 24.419 41.9615 24.648 41.7335C24.877 41.5055 25.1877 41.3774 25.5115 41.3774C25.8354 41.3774 26.146 41.5055 26.375 41.7335C26.6041 41.9615 26.7327 42.2708 26.7327 42.5933V44.4073Z" fill="#32A9C8"/>
</g>
<defs>
<clipPath id="clip0_0_221">
<rect width="61" height="51" fill="white" transform="translate(0.119629 0.52002)"/>
</clipPath>
</defs>
</svg>
