<svg width="123" height="118" viewBox="0 0 123 118" fill="none" xmlns="http://www.w3.org/2000/svg">
<path d="M105.156 0.380859L117.119 15.7617C112.562 19.9935 108.167 26.5039 103.936 35.293C99.8665 43.9193 97.6693 54.8242 97.3438 68.0078L122.49 71.1816V117.08H73.6621V95.3516C73.6621 93.3984 73.7435 89.3294 73.9062 83.1445C74.069 76.7969 74.2318 72.5651 74.3945 70.4492C74.5573 68.1706 74.8014 64.3457 75.127 58.9746C75.4525 53.6035 75.9408 49.6973 76.5918 47.2559C77.2428 44.8145 78.0566 41.3965 79.0332 37.002C80.0098 32.6074 81.2305 29.1081 82.6953 26.5039C84.3229 23.8997 86.1133 20.8887 88.0664 17.4707C90.1823 14.0527 92.6237 11.0417 95.3906 8.4375C98.3203 5.67057 101.576 2.98503 105.156 0.380859ZM33.3789 0.380859L45.3418 15.7617C40.7845 19.9935 36.39 26.5039 32.1582 35.293C28.0892 43.9193 25.8919 54.7428 25.5664 67.7637L49.248 71.1816V117.08H0.419922V95.3516C0.419922 85.4232 0.501302 77.8548 0.664062 72.6465C0.826823 67.4382 1.47786 60.765 2.61719 52.627C3.75651 44.3262 5.38411 37.5716 7.5 32.3633C9.77865 27.1549 13.0339 21.6211 17.2656 15.7617C21.6602 9.90234 27.0312 4.77539 33.3789 0.380859Z" fill="#ECD188"/>
</svg>
