<svg width="123" height="118" viewBox="0 0 123 118" fill="none" xmlns="http://www.w3.org/2000/svg">
<path d="M17.8438 117.619L5.88086 102.238C10.4382 98.0065 14.8327 91.4961 19.0645 82.707C23.1335 74.0807 25.3307 63.1758 25.6562 49.9922L0.509766 46.8184V0.919922H49.3379V22.6484C49.3379 24.6016 49.2565 28.6706 49.0938 34.8555C48.931 41.2031 48.7682 45.4349 48.6055 47.5508C48.4427 49.8294 48.1986 53.6543 47.873 59.0254C47.5475 64.3965 47.0592 68.3027 46.4082 70.7441C45.7572 73.1855 44.9434 76.6035 43.9668 80.998C42.9902 85.3926 41.7695 88.8919 40.3047 91.4961C38.6771 94.1003 36.8867 97.1113 34.9336 100.529C32.8177 103.947 30.3763 106.958 27.6094 109.562C24.6797 112.329 21.4245 115.015 17.8438 117.619ZM89.6211 117.619L77.6582 102.238C82.2155 98.0065 86.61 91.4961 90.8418 82.707C94.9108 74.0807 97.1081 63.2572 97.4336 50.2363L73.752 46.8184V0.919922H122.58V22.6484C122.58 32.5768 122.499 40.1452 122.336 45.3535C122.173 50.5618 121.522 57.235 120.383 65.373C119.243 73.6738 117.616 80.4284 115.5 85.6367C113.221 90.8451 109.966 96.3789 105.734 102.238C101.34 108.098 95.9688 113.225 89.6211 117.619Z" fill="#ECD188"/>
</svg>
